<svg width="179" height="34" viewBox="0 0 179 34" fill="none" xmlns="http://www.w3.org/2000/svg">
<path d="M45.1307 22.2074L45.1207 17.8622H45.6974L51.1861 11.7273H55.392L48.6406 19.2443H47.8949L45.1307 22.2074ZM41.8494 27V6.63636H45.4489V27H41.8494ZM51.4347 27L46.4631 20.0497L48.8892 17.5142L55.7401 27H51.4347ZM59.7103 18.0511V27H56.1108V11.7273H59.5512V14.3224H59.7302C60.0815 13.4673 60.6416 12.7879 61.4106 12.2841C62.1861 11.7803 63.144 11.5284 64.2841 11.5284C65.3381 11.5284 66.2562 11.7538 67.0384 12.2045C67.8272 12.6553 68.4371 13.3082 68.8679 14.1634C69.3054 15.0185 69.5209 16.0559 69.5142 17.2756V27H65.9148V17.8324C65.9148 16.8116 65.6497 16.0128 65.1194 15.4361C64.5957 14.8594 63.8698 14.571 62.9418 14.571C62.3121 14.571 61.7519 14.7102 61.2614 14.9886C60.7775 15.2604 60.3963 15.6548 60.1179 16.1719C59.8462 16.6889 59.7103 17.3153 59.7103 18.0511ZM75.8882 27.3082C74.9204 27.3082 74.0487 27.1359 73.2732 26.7912C72.5042 26.4399 71.8944 25.9228 71.4436 25.2401C70.9995 24.5573 70.7774 23.7154 70.7774 22.7145C70.7774 21.8527 70.9365 21.1402 71.2547 20.5767C71.5729 20.0133 72.0071 19.5625 72.5573 19.2244C73.1074 18.8864 73.7272 18.6312 74.4166 18.4588C75.1127 18.2798 75.8319 18.1506 76.5743 18.071C77.4692 17.9782 78.195 17.8954 78.7519 17.8224C79.3087 17.7429 79.713 17.6236 79.9649 17.4645C80.2235 17.2988 80.3527 17.0436 80.3527 16.6989V16.6392C80.3527 15.8902 80.1306 15.3101 79.6865 14.8991C79.2424 14.4882 78.6027 14.2827 77.7675 14.2827C76.8859 14.2827 76.1865 14.4749 75.6695 14.8594C75.1591 15.2438 74.8144 15.6979 74.6354 16.2216L71.2746 15.7443C71.5397 14.8163 71.9772 14.0407 72.5871 13.4176C73.1969 12.7879 73.9427 12.3172 74.8243 12.0057C75.7059 11.6875 76.6804 11.5284 77.7476 11.5284C78.4834 11.5284 79.2159 11.6146 79.945 11.7869C80.6742 11.9593 81.3404 12.2443 81.9436 12.642C82.5468 13.0331 83.0307 13.5668 83.3953 14.2429C83.7665 14.919 83.9521 15.7642 83.9521 16.7784V27H80.4919V24.902H80.3726C80.1538 25.3262 79.8456 25.724 79.4479 26.0952C79.0568 26.4598 78.5629 26.7547 77.9663 26.9801C77.3764 27.1989 76.6837 27.3082 75.8882 27.3082ZM76.8229 24.6634C77.5454 24.6634 78.1718 24.5208 78.7021 24.2358C79.2324 23.9441 79.6401 23.5597 79.9252 23.0824C80.2168 22.6051 80.3627 22.0848 80.3627 21.5213V19.7216C80.25 19.8144 80.0577 19.9006 79.786 19.9801C79.5208 20.0597 79.2225 20.1293 78.8911 20.1889C78.5596 20.2486 78.2315 20.3016 77.9067 20.348C77.5819 20.3944 77.3002 20.4342 77.0615 20.4673C76.5246 20.5402 76.044 20.6596 75.6198 20.8253C75.1955 20.991 74.8608 21.223 74.6155 21.5213C74.3702 21.813 74.2476 22.1908 74.2476 22.6548C74.2476 23.3177 74.4895 23.8182 74.9735 24.1562C75.4574 24.4943 76.0738 24.6634 76.8229 24.6634ZM92.5335 33.0455C91.2409 33.0455 90.1306 32.8698 89.2025 32.5185C88.2745 32.1738 87.5288 31.7098 86.9653 31.1264C86.4019 30.5431 86.0108 29.8968 85.792 29.1875L89.0335 28.402C89.1793 28.7003 89.3915 28.9953 89.6699 29.2869C89.9483 29.5852 90.3228 29.8305 90.7935 30.0227C91.2707 30.2216 91.8706 30.321 92.5932 30.321C93.614 30.321 94.4592 30.0724 95.1287 29.5753C95.7982 29.0848 96.1329 28.276 96.1329 27.1491V24.2557H95.954C95.7684 24.6269 95.4966 25.008 95.1386 25.3991C94.7873 25.7902 94.32 26.1184 93.7366 26.3835C93.1599 26.6487 92.4341 26.7812 91.5591 26.7812C90.3858 26.7812 89.3219 26.5062 88.3673 25.956C87.4194 25.3991 86.6637 24.5705 86.1003 23.4702C85.5435 22.3632 85.265 20.9777 85.265 19.3139C85.265 17.6368 85.5435 16.2216 86.1003 15.0682C86.6637 13.9081 87.4227 13.0298 88.3773 12.4332C89.3318 11.83 90.3957 11.5284 91.569 11.5284C92.4639 11.5284 93.1997 11.6809 93.7764 11.9858C94.3597 12.2841 94.8238 12.6454 95.1685 13.0696C95.5131 13.4872 95.775 13.8816 95.954 14.2528H96.1528V11.7273H99.7025V27.2486C99.7025 28.5545 99.391 29.6349 98.7679 30.4901C98.1448 31.3452 97.293 31.9848 96.2125 32.4091C95.132 32.8333 93.9057 33.0455 92.5335 33.0455ZM92.5633 23.9574C93.3256 23.9574 93.9753 23.7718 94.5122 23.4006C95.0491 23.0294 95.4568 22.4957 95.7352 21.7997C96.0136 21.1037 96.1528 20.2685 96.1528 19.294C96.1528 18.3329 96.0136 17.491 95.7352 16.7685C95.4634 16.0459 95.0591 15.4858 94.5221 15.0881C93.9918 14.6837 93.3389 14.4815 92.5633 14.4815C91.7613 14.4815 91.0917 14.6903 90.5548 15.108C90.0179 15.5256 89.6135 16.099 89.3417 16.8281C89.07 17.5507 88.9341 18.3726 88.9341 19.294C88.9341 20.2287 89.07 21.0473 89.3417 21.75C89.6202 22.446 90.0278 22.9896 90.5648 23.3807C91.1083 23.7652 91.7745 23.9574 92.5633 23.9574ZM105.311 18.0511V27H101.711V6.63636H105.231V14.3224H105.41C105.768 13.4607 106.322 12.7812 107.071 12.2841C107.827 11.7803 108.788 11.5284 109.954 11.5284C111.015 11.5284 111.94 11.7505 112.729 12.1946C113.517 12.6387 114.127 13.2884 114.558 14.1435C114.996 14.9986 115.214 16.0426 115.214 17.2756V27H111.615V17.8324C111.615 16.8049 111.35 16.0062 110.819 15.4361C110.296 14.8594 109.56 14.571 108.612 14.571C107.976 14.571 107.406 14.7102 106.902 14.9886C106.405 15.2604 106.014 15.6548 105.729 16.1719C105.45 16.6889 105.311 17.3153 105.311 18.0511ZM129.274 15.7642L125.993 16.1222C125.9 15.7907 125.738 15.4792 125.506 15.1875C125.281 14.8958 124.976 14.6605 124.591 14.4815C124.207 14.3026 123.736 14.2131 123.179 14.2131C122.43 14.2131 121.8 14.3755 121.29 14.7003C120.786 15.0251 120.538 15.446 120.544 15.9631C120.538 16.4072 120.7 16.7685 121.031 17.0469C121.37 17.3253 121.926 17.554 122.702 17.733L125.307 18.2898C126.752 18.6013 127.826 19.0952 128.529 19.7713C129.238 20.4474 129.596 21.3324 129.602 22.4261C129.596 23.3873 129.314 24.2358 128.757 24.9716C128.207 25.7008 127.441 26.2708 126.46 26.6818C125.479 27.0928 124.352 27.2983 123.08 27.2983C121.21 27.2983 119.706 26.9072 118.566 26.125C117.425 25.3362 116.746 24.2391 116.527 22.8338L120.037 22.4957C120.196 23.1851 120.534 23.7055 121.051 24.0568C121.568 24.4081 122.241 24.5838 123.07 24.5838C123.925 24.5838 124.611 24.4081 125.128 24.0568C125.652 23.7055 125.914 23.2713 125.914 22.7543C125.914 22.3168 125.745 21.9555 125.406 21.6705C125.075 21.3854 124.558 21.1667 123.855 21.0142L121.25 20.4673C119.785 20.1624 118.701 19.6487 117.999 18.9261C117.296 18.197 116.948 17.2756 116.955 16.1619C116.948 15.2206 117.203 14.4053 117.72 13.7159C118.244 13.0199 118.97 12.483 119.898 12.1051C120.833 11.7206 121.91 11.5284 123.129 11.5284C124.919 11.5284 126.328 11.9096 127.355 12.6719C128.389 13.4342 129.029 14.465 129.274 15.7642ZM138.517 11.7273V14.5114H129.737V11.7273H138.517ZM131.905 8.06818H135.504V22.4062C135.504 22.8902 135.577 23.2614 135.723 23.5199C135.875 23.7718 136.074 23.9441 136.32 24.0369C136.565 24.1297 136.837 24.1761 137.135 24.1761C137.36 24.1761 137.566 24.1596 137.751 24.1264C137.944 24.0933 138.089 24.0634 138.189 24.0369L138.795 26.8509C138.603 26.9171 138.328 26.9901 137.97 27.0696C137.619 27.1491 137.188 27.1955 136.677 27.2088C135.776 27.2353 134.964 27.0994 134.241 26.8011C133.519 26.4962 132.945 26.0256 132.521 25.3892C132.104 24.7528 131.898 23.9574 131.905 23.0028V8.06818ZM146.345 27.2983C144.854 27.2983 143.561 26.9702 142.467 26.3139C141.374 25.6577 140.525 24.7396 139.922 23.5597C139.325 22.3797 139.027 21.0009 139.027 19.4233C139.027 17.8456 139.325 16.4635 139.922 15.277C140.525 14.0904 141.374 13.169 142.467 12.5128C143.561 11.8565 144.854 11.5284 146.345 11.5284C147.837 11.5284 149.129 11.8565 150.223 12.5128C151.317 13.169 152.162 14.0904 152.758 15.277C153.362 16.4635 153.663 17.8456 153.663 19.4233C153.663 21.0009 153.362 22.3797 152.758 23.5597C152.162 24.7396 151.317 25.6577 150.223 26.3139C149.129 26.9702 147.837 27.2983 146.345 27.2983ZM146.365 24.4148C147.174 24.4148 147.85 24.1927 148.393 23.7486C148.937 23.2978 149.341 22.6946 149.606 21.9389C149.878 21.1832 150.014 20.3414 150.014 19.4134C150.014 18.4787 149.878 17.6335 149.606 16.8778C149.341 16.1155 148.937 15.509 148.393 15.0582C147.85 14.6075 147.174 14.3821 146.365 14.3821C145.536 14.3821 144.847 14.6075 144.297 15.0582C143.753 15.509 143.346 16.1155 143.074 16.8778C142.809 17.6335 142.676 18.4787 142.676 19.4134C142.676 20.3414 142.809 21.1832 143.074 21.9389C143.346 22.6946 143.753 23.2978 144.297 23.7486C144.847 24.1927 145.536 24.4148 146.365 24.4148ZM155.038 27V11.7273H158.528V14.2727H158.687C158.966 13.3911 159.443 12.7116 160.119 12.2344C160.802 11.7505 161.581 11.5085 162.456 11.5085C162.655 11.5085 162.877 11.5185 163.122 11.5384C163.374 11.5516 163.583 11.5748 163.749 11.608V14.919C163.596 14.866 163.354 14.8196 163.023 14.7798C162.698 14.7334 162.383 14.7102 162.078 14.7102C161.422 14.7102 160.832 14.8527 160.308 15.1378C159.791 15.4162 159.384 15.804 159.085 16.3011C158.787 16.7983 158.638 17.3717 158.638 18.0213V27H155.038ZM170.592 27.2983C169.061 27.2983 167.739 26.9801 166.625 26.3438C165.518 25.7008 164.666 24.7926 164.07 23.6193C163.473 22.4394 163.175 21.0507 163.175 19.4531C163.175 17.8821 163.473 16.5033 164.07 15.3168C164.673 14.1236 165.515 13.1955 166.595 12.5327C167.676 11.8632 168.945 11.5284 170.403 11.5284C171.345 11.5284 172.233 11.6809 173.068 11.9858C173.91 12.2841 174.652 12.7481 175.295 13.3778C175.945 14.0076 176.456 14.8097 176.827 15.7841C177.198 16.7519 177.384 17.9053 177.384 19.2443V20.348H164.865V17.9219H173.933C173.927 17.2325 173.777 16.6193 173.486 16.0824C173.194 15.5388 172.786 15.1113 172.263 14.7997C171.746 14.4882 171.143 14.3324 170.453 14.3324C169.717 14.3324 169.071 14.5114 168.514 14.8693C167.957 15.2206 167.523 15.6847 167.212 16.2614C166.907 16.8314 166.751 17.4579 166.744 18.1406V20.2585C166.744 21.1468 166.907 21.9091 167.232 22.5455C167.556 23.1752 168.01 23.6591 168.594 23.9972C169.177 24.3286 169.86 24.4943 170.642 24.4943C171.166 24.4943 171.64 24.4214 172.064 24.2756C172.488 24.1231 172.856 23.901 173.168 23.6094C173.479 23.3177 173.715 22.9564 173.874 22.5256L177.234 22.9034C177.022 23.7917 176.618 24.5672 176.021 25.2301C175.431 25.8864 174.676 26.3968 173.754 26.7614C172.833 27.1193 171.779 27.2983 170.592 27.2983Z" fill="#313132" style="fill:#313132;fill:color(display-p3 0.1922 0.1922 0.1961);fill-opacity:1;"/>
<rect y="2" width="30" height="30" rx="5" fill="#313132" style="fill:#313132;fill:color(display-p3 0.1922 0.1922 0.1961);fill-opacity:1;"/>
<path d="M12.1748 21.5469L12.183 17.5547H12.6929L16.7395 13H20.7615L15.3249 19.0313H14.4942L12.1748 21.5469ZM9 25V9H12.5038V25H9ZM16.8958 25L13.1782 19.7734L15.5141 17.4219L21 25H16.8958Z" fill="white" style="fill:white;fill-opacity:1;"/>
</svg>
